<svg xmlns="http://www.w3.org/2000/svg" xmlns:xlink="http://www.w3.org/1999/xlink" width="1580" height="521"><g transform="translate(-60 0)"><path d="M440 20h99.6v95.9H440V20z" fill="#d9a741"/><path d="M440 115.9h99.6v4.5H440v-4.5z" fill="#8c6c2a"/><path d="M532.5 76.7V59.9h-6.7c-.9-3.4-2.9-8-5.7-12l4.7-3.7-10.2-9.4-4.9 4.6c-4.1-2.6-8.2-4.3-14.2-5.2v-7.4h-15.1v7.5c-3.5 1-8.4 2.7-12.3 5.1l-4.2-4.3-10 9.8 4.4 2.7c-2.9 4.1-4.9 8.9-5.8 12.3H447v16.8h5.7c.9 4.4 2.9 8.8 5.5 12.6l-4.7 4.4 10.2 9.8 4.1-4.5c3.9 2.5 9.1 4.3 12.6 5.3v5.8h15.1v-5.6c6-1 10.3-2.9 14.5-5.7l5 4.7 10.3-9.8-5-4.7c2.5-3.7 4.4-10.2 5.4-12.3h6.9-.1zM488.9 94c-13.8-.1-25.4-11.2-25.7-24.3-.3-14 12.3-25.3 26-25.3 14.6-.1 26.6 11.3 26.4 25.3-.2 13.5-12 24.4-26.7 24.3" fill="#fff"/><path d="M504.3 68.5c0 7.7-6.5 13.9-14.5 13.9s-14.6-6.2-14.6-13.9 6.6-13.9 14.6-13.9 14.5 6.2 14.5 13.9" fill="#fff"/><use xlink:href="#a" transform="matrix(1,0,0,1,440,120) translate(19.549999999999997 14.4)"/><path d="M260 210h99.5v73.92H260V210z" fill="#d9a741"/><path d="M260 283.92h99.5v5.44H260v-5.44z" fill="#8c6c2a"/><path d="M269.9 259.28l-.1-23.04 8.2 11.52-8.1 11.52zm25.9 16.4h-10.2v-55.76h10.2v55.76zm19.5 0h-10.1v-55.76h10.1v55.76zm18 0h-10.2v-55.76h10.2v55.76zm8.3-16.4l-.1-22.96 8.2 11.52-8.1 11.44z" fill="#fff"/><use xlink:href="#b" transform="matrix(1,0,0,1,260,290) translate(-1.9250000000000043 14.4)"/><path d="M980 210h99.5v73.92H980V210z" fill="#d9a741"/><path d="M980 283.92h99.5v5.44H980v-5.44z" fill="#8c6c2a"/><path d="M989.9 259.28l-.1-23.04 8.2 11.52-8.1 11.52zm25.9 16.4h-10.2v-55.76h10.2v55.76zm19.5 0h-10.1v-55.76h10.1v55.76zm18 0h-10.2v-55.76h10.2v55.76zm8.3-16.4l-.1-22.96 8.2 11.52-8.1 11.44z" fill="#fff"/><use xlink:href="#c" transform="matrix(1,0,0,1,980,290) translate(-6.350000000000001 14.4)"/><path d="M620 210h99.5v73.92H620V210z" fill="#d9a741"/><path d="M620 283.92h99.5v5.44H620v-5.44z" fill="#8c6c2a"/><path d="M629.9 259.28l-.1-23.04 8.2 11.52-8.1 11.52zm25.9 16.4h-10.2v-55.76h10.2v55.76zm19.5 0h-10.1v-55.76h10.1v55.76zm18 0h-10.2v-55.76h10.2v55.76zm8.3-16.4l-.1-22.96 8.2 11.52-8.1 11.44z" fill="#fff"/><use xlink:href="#d" transform="matrix(1,0,0,1,620,290) translate(-2.8500000000000085 14.4)"/><path d="M1340 210h99.5v73.92H1340V210z" fill="#d9a741"/><path d="M1340 283.92h99.5v5.44H1340v-5.44z" fill="#8c6c2a"/><path d="M1349.9 259.28l-.1-23.04 8.2 11.52-8.1 11.52zm25.9 16.4h-10.2v-55.76h10.2v55.76zm19.5 0h-10.1v-55.76h10.1v55.76zm18 0h-10.2v-55.76h10.2v55.76zm8.3-16.4l-.1-22.96 8.2 11.52-8.1 11.44z" fill="#fff"/><use xlink:href="#e" transform="matrix(1,0,0,1,1340,290) translate(-12.875000000000007 14.4)"/><path d="M800 20h99.6v95.9H800V20z" fill="#d9a741"/><path d="M800 115.9h99.6v4.5H800v-4.5z" fill="#8c6c2a"/><path d="M892.5 76.7V59.9h-6.7c-.9-3.4-2.9-8-5.7-12l4.7-3.7-10.2-9.4-4.9 4.6c-4.1-2.6-8.2-4.3-14.2-5.2v-7.4h-15.1v7.5c-3.5 1-8.4 2.7-12.3 5.1l-4.2-4.3-10 9.8 4.4 2.7c-2.9 4.1-4.9 8.9-5.8 12.3H807v16.8h5.7c.9 4.4 2.9 8.8 5.5 12.6l-4.7 4.4 10.2 9.8 4.1-4.5c3.9 2.5 9.1 4.3 12.6 5.3v5.8h15.1v-5.6c6-1 10.3-2.9 14.5-5.7l5 4.7 10.3-9.8-5-4.7c2.5-3.7 4.4-10.2 5.4-12.3h6.9-.1zM848.9 94c-13.8-.1-25.4-11.2-25.7-24.3-.3-14 12.3-25.3 26-25.3 14.6-.1 26.6 11.3 26.4 25.3-.2 13.5-12 24.4-26.7 24.3" fill="#fff"/><path d="M864.3 68.5c0 7.7-6.5 13.9-14.5 13.9s-14.6-6.2-14.6-13.9 6.6-13.9 14.6-13.9 14.5 6.2 14.5 13.9" fill="#fff"/><use xlink:href="#f" transform="matrix(1,0,0,1,800,120) translate(30.099999999999998 14.4)"/><path d="M1160 20h99.6v95.9H1160V20z" fill="#d9a741"/><path d="M1160 115.9h99.6v4.5H1160v-4.5z" fill="#8c6c2a"/><path d="M1252.5 76.7V59.9h-6.7c-.9-3.4-2.9-8-5.7-12l4.7-3.7-10.2-9.4-4.9 4.6c-4.1-2.6-8.2-4.3-14.2-5.2v-7.4h-15.1v7.5c-3.5 1-8.4 2.7-12.3 5.1l-4.2-4.3-10 9.8 4.4 2.7c-2.9 4.1-4.9 8.9-5.8 12.3h-5.5v16.8h5.7c.9 4.4 2.9 8.8 5.5 12.6l-4.7 4.4 10.2 9.8 4.1-4.5c3.9 2.5 9.1 4.3 12.6 5.3v5.8h15.1v-5.6c6-1 10.3-2.9 14.5-5.7l5 4.7 10.3-9.8-5-4.7c2.5-3.7 4.4-10.2 5.4-12.3h6.9-.1zM1208.9 94c-13.8-.1-25.4-11.2-25.7-24.3-.3-14 12.3-25.3 26-25.3 14.6-.1 26.6 11.3 26.4 25.3-.2 13.5-12 24.4-26.7 24.3" fill="#fff"/><path d="M1224.3 68.5c0 7.7-6.5 13.9-14.5 13.9s-14.6-6.2-14.6-13.9 6.6-13.9 14.6-13.9 14.5 6.2 14.5 13.9" fill="#fff"/><use xlink:href="#g" transform="matrix(1,0,0,1,1160,120) translate(16.049999999999997 14.4)"/><path d="M1520 200h99.6v95.9H1520V200z" fill="#d9a741"/><path d="M1520 295.9h99.6v4.5H1520v-4.5z" fill="#8c6c2a"/><path d="M1612.5 256.7v-16.8h-6.7c-.9-3.4-2.9-8-5.7-12l4.7-3.7-10.2-9.4-4.9 4.6c-4.1-2.6-8.2-4.3-14.2-5.2v-7.4h-15.1v7.5c-3.5 1-8.4 2.7-12.3 5.1l-4.2-4.3-10 9.8 4.4 2.7c-2.9 4.1-4.9 8.9-5.8 12.3h-5.5v16.8h5.7c.9 4.4 2.9 8.8 5.5 12.6l-4.7 4.4 10.2 9.8 4.1-4.5c3.9 2.5 9.1 4.3 12.6 5.3v5.8h15.1v-5.6c6-1 10.3-2.9 14.5-5.7l5 4.7 10.3-9.8-5-4.7c2.5-3.7 4.4-10.2 5.4-12.3h6.9-.1zm-43.6 17.3c-13.8-.1-25.4-11.2-25.7-24.3-.3-14 12.3-25.3 26-25.3 14.6-.1 26.6 11.3 26.4 25.3-.2 13.5-12 24.4-26.7 24.3" fill="#fff"/><path d="M1584.3 248.5c0 7.7-6.5 13.9-14.5 13.9s-14.6-6.2-14.6-13.9 6.6-13.9 14.6-13.9 14.5 6.2 14.5 13.9" fill="#fff"/><use xlink:href="#h" transform="matrix(1,0,0,1,1520,300) translate(23.575 14.4)"/><path d="M359.5 260h40.25V80H440" stroke="#000" stroke-width="2" fill="none"/><path d="M440 80l-14.27 4.64v-9.28z"/><path d="M440 78.95v2.1L424.73 86V74zm-13.27 4.3L436.76 80l-10.03-3.26z"/><path d="M539.6 80h40.2v180H620" stroke="#000" stroke-width="2" fill="none"/><path d="M620 260l-14.27 4.64v-9.28z"/><path d="M620 258.95v2.1L604.73 266v-12zm-13.27 4.3l10.03-3.25-10.03-3.26z"/><path d="M719.5 260h40.25V80H800" stroke="#000" stroke-width="2" fill="none"/><path d="M800 80l-14.27 4.64v-9.28z"/><path d="M800 78.95v2.1L784.73 86V74zm-13.27 4.3L796.76 80l-10.03-3.26z"/><path d="M899.6 80h40.2v180H980" stroke="#000" stroke-width="2" fill="none"/><path d="M980 260l-14.27 4.64v-9.28z"/><path d="M980 258.95v2.1L964.73 266v-12zm-13.27 4.3l10.03-3.25-10.03-3.26z"/><path d="M1079.5 260h40.25V80H1160" stroke="#000" stroke-width="2" fill="none"/><path d="M1160 80l-14.27 4.64v-9.28z"/><path d="M1160 78.95v2.1L1144.73 86V74zm-13.27 4.3l10.03-3.25-10.03-3.26z"/><path d="M1259.6 80h40.2v180h40.2" stroke="#000" stroke-width="2" fill="none"/><path d="M1340 260l-14.27 4.64v-9.28z"/><path d="M1340 258.95v2.1l-15.27 4.96v-12zm-13.27 4.3l10.03-3.25-10.03-3.26z"/><path d="M1439.5 260h80.5" stroke="#000" stroke-width="2" fill="none"/><path d="M1520 260l-14.27 4.64v-9.28z"/><path d="M1520 258.95v2.1l-15.27 4.96v-12zm-13.27 4.3l10.03-3.25-10.03-3.26z"/><path d="M440 140h99.6v95.9H440V140z" fill="#d9a741"/><path d="M440 235.9h99.6v4.5H440v-4.5z" fill="#8c6c2a"/><path d="M532.5 196.7v-16.8h-6.7c-.9-3.4-2.9-8-5.7-12l4.7-3.7-10.2-9.4-4.9 4.6c-4.1-2.6-8.2-4.3-14.2-5.2v-7.4h-15.1v7.5c-3.5 1-8.4 2.7-12.3 5.1l-4.2-4.3-10 9.8 4.4 2.7c-2.9 4.1-4.9 8.9-5.8 12.3H447v16.8h5.7c.9 4.4 2.9 8.8 5.5 12.6l-4.7 4.4 10.2 9.8 4.1-4.5c3.9 2.5 9.1 4.3 12.6 5.3v5.8h15.1v-5.6c6-1 10.3-2.9 14.5-5.7l5 4.7 10.3-9.8-5-4.7c2.5-3.7 4.4-10.2 5.4-12.3h6.9-.1zM488.9 214c-13.8-.1-25.4-11.2-25.7-24.3-.3-14 12.3-25.3 26-25.3 14.6-.1 26.6 11.3 26.4 25.3-.2 13.5-12 24.4-26.7 24.3" fill="#fff"/><path d="M504.3 188.5c0 7.7-6.5 13.9-14.5 13.9s-14.6-6.2-14.6-13.9 6.6-13.9 14.6-13.9 14.5 6.2 14.5 13.9" fill="#fff"/><use xlink:href="#a" transform="matrix(1,0,0,1,440,240) translate(19.549999999999997 14.4)"/><path d="M359.5 260h40.25v-60H440" stroke="#000" stroke-width="2" fill="none"/><path d="M440 200l-14.27 4.64v-9.28z"/><path d="M440 198.95v2.1L424.73 206v-12zm-13.27 4.3l10.03-3.25-10.03-3.26z"/><path d="M539.6 200h40.2v60H620" stroke="#000" stroke-width="2" fill="none"/><path d="M620 260l-14.27 4.64v-9.28z"/><path d="M620 258.95v2.1L604.73 266v-12zm-13.27 4.3l10.03-3.25-10.03-3.26z"/><path d="M800 140h99.6v95.9H800V140z" fill="#d9a741"/><path d="M800 235.9h99.6v4.5H800v-4.5z" fill="#8c6c2a"/><path d="M892.5 196.7v-16.8h-6.7c-.9-3.4-2.9-8-5.7-12l4.7-3.7-10.2-9.4-4.9 4.6c-4.1-2.6-8.2-4.3-14.2-5.2v-7.4h-15.1v7.5c-3.5 1-8.4 2.7-12.3 5.1l-4.2-4.3-10 9.8 4.4 2.7c-2.9 4.1-4.9 8.9-5.8 12.3H807v16.8h5.7c.9 4.4 2.9 8.8 5.5 12.6l-4.7 4.4 10.2 9.8 4.1-4.5c3.9 2.5 9.1 4.3 12.6 5.3v5.8h15.1v-5.6c6-1 10.3-2.9 14.5-5.7l5 4.7 10.3-9.8-5-4.7c2.5-3.7 4.4-10.2 5.4-12.3h6.9-.1zM848.9 214c-13.8-.1-25.4-11.2-25.7-24.3-.3-14 12.3-25.3 26-25.3 14.6-.1 26.6 11.3 26.4 25.3-.2 13.5-12 24.4-26.7 24.3" fill="#fff"/><path d="M864.3 188.5c0 7.7-6.5 13.9-14.5 13.9s-14.6-6.2-14.6-13.9 6.6-13.9 14.6-13.9 14.5 6.2 14.5 13.9" fill="#fff"/><use xlink:href="#f" transform="matrix(1,0,0,1,800,240) translate(30.099999999999998 14.4)"/><path d="M719.5 260h40.25v-59.5H800" stroke="#000" stroke-width="2" fill="none"/><path d="M800 200.5l-14.27 4.64v-9.28z"/><path d="M800 199.45v2.1l-15.27 4.96v-12zm-13.27 4.3l10.03-3.25-10.03-3.26z"/><path d="M899.6 200h40.2v59.6H980" stroke="#000" stroke-width="2" fill="none"/><path d="M980 259.6l-14.27 4.64v-9.28z"/><path d="M980 258.55v2.1l-15.27 4.96v-12zm-13.27 4.3l10.03-3.25-10.03-3.26z"/><path d="M1160 140h99.6v95.9H1160V140z" fill="#d9a741"/><path d="M1160 235.9h99.6v4.5H1160v-4.5z" fill="#8c6c2a"/><path d="M1252.5 196.7v-16.8h-6.7c-.9-3.4-2.9-8-5.7-12l4.7-3.7-10.2-9.4-4.9 4.6c-4.1-2.6-8.2-4.3-14.2-5.2v-7.4h-15.1v7.5c-3.5 1-8.4 2.7-12.3 5.1l-4.2-4.3-10 9.8 4.4 2.7c-2.9 4.1-4.9 8.9-5.8 12.3h-5.5v16.8h5.7c.9 4.4 2.9 8.8 5.5 12.6l-4.7 4.4 10.2 9.8 4.1-4.5c3.9 2.5 9.1 4.3 12.6 5.3v5.8h15.1v-5.6c6-1 10.3-2.9 14.5-5.7l5 4.7 10.3-9.8-5-4.7c2.5-3.7 4.4-10.2 5.4-12.3h6.9-.1zm-43.6 17.3c-13.8-.1-25.4-11.2-25.7-24.3-.3-14 12.3-25.3 26-25.3 14.6-.1 26.6 11.3 26.4 25.3-.2 13.5-12 24.4-26.7 24.3" fill="#fff"/><path d="M1224.3 188.5c0 7.7-6.5 13.9-14.5 13.9s-14.6-6.2-14.6-13.9 6.6-13.9 14.6-13.9 14.5 6.2 14.5 13.9" fill="#fff"/><use xlink:href="#g" transform="matrix(1,0,0,1,1160,240) translate(16.049999999999997 14.4)"/><path d="M1079.5 260h40.25v-60H1160" stroke="#000" stroke-width="2" fill="none"/><path d="M1160 200l-14.27 4.64v-9.28z"/><path d="M1160 198.95v2.1l-15.27 4.96v-12zm-13.27 4.3l10.03-3.25-10.03-3.26z"/><path d="M1259.6 200h40.2v60h40.2" stroke="#000" stroke-width="2" fill="none"/><path d="M1340 260l-14.27 4.64v-9.28z"/><path d="M1340 258.95v2.1l-15.27 4.96v-12zm-13.27 4.3l10.03-3.25-10.03-3.26z"/><path d="M440 260h99.6v95.9H440V260z" fill="#d9a741"/><path d="M440 355.9h99.6v4.5H440v-4.5z" fill="#8c6c2a"/><path d="M532.5 316.7v-16.8h-6.7c-.9-3.4-2.9-8-5.7-12l4.7-3.7-10.2-9.4-4.9 4.6c-4.1-2.6-8.2-4.3-14.2-5.2v-7.4h-15.1v7.5c-3.5 1-8.4 2.7-12.3 5.1l-4.2-4.3-10 9.8 4.4 2.7c-2.9 4.1-4.9 8.9-5.8 12.3H447v16.8h5.7c.9 4.4 2.9 8.8 5.5 12.6l-4.7 4.4 10.2 9.8 4.1-4.5c3.9 2.5 9.1 4.3 12.6 5.3v5.8h15.1v-5.6c6-1 10.3-2.9 14.5-5.7l5 4.7 10.3-9.8-5-4.7c2.5-3.7 4.4-10.2 5.4-12.3h6.9-.1zM488.9 334c-13.8-.1-25.4-11.2-25.7-24.3-.3-14 12.3-25.3 26-25.3 14.6-.1 26.6 11.3 26.4 25.3-.2 13.5-12 24.4-26.7 24.3" fill="#fff"/><path d="M504.3 308.5c0 7.7-6.5 13.9-14.5 13.9s-14.6-6.2-14.6-13.9 6.6-13.9 14.6-13.9 14.5 6.2 14.5 13.9" fill="#fff"/><use xlink:href="#a" transform="matrix(1,0,0,1,440,360) translate(19.549999999999997 14.4)"/><path d="M440 380h99.6v95.9H440V380z" fill="#d9a741"/><path d="M440 475.9h99.6v4.5H440v-4.5z" fill="#8c6c2a"/><path d="M532.5 436.7v-16.8h-6.7c-.9-3.4-2.9-8-5.7-12l4.7-3.7-10.2-9.4-4.9 4.6c-4.1-2.6-8.2-4.3-14.2-5.2v-7.4h-15.1v7.5c-3.5 1-8.4 2.7-12.3 5.1l-4.2-4.3-10 9.8 4.4 2.7c-2.9 4.1-4.9 8.9-5.8 12.3H447v16.8h5.7c.9 4.4 2.9 8.8 5.5 12.6l-4.7 4.4 10.2 9.8 4.1-4.5c3.9 2.5 9.1 4.3 12.6 5.3v5.8h15.1v-5.6c6-1 10.3-2.9 14.5-5.7l5 4.7 10.3-9.8-5-4.7c2.5-3.7 4.4-10.2 5.4-12.3h6.9-.1zM488.9 454c-13.8-.1-25.4-11.2-25.7-24.3-.3-14 12.3-25.3 26-25.3 14.6-.1 26.6 11.3 26.4 25.3-.2 13.5-12 24.4-26.7 24.3" fill="#fff"/><path d="M504.3 428.5c0 7.7-6.5 13.9-14.5 13.9s-14.6-6.2-14.6-13.9 6.6-13.9 14.6-13.9 14.5 6.2 14.5 13.9" fill="#fff"/><use xlink:href="#a" transform="matrix(1,0,0,1,440,480) translate(19.549999999999997 14.4)"/><path d="M359.5 260h40.25v60H440" stroke="#000" stroke-width="2" fill="none"/><path d="M440 320l-14.27 4.64v-9.28z"/><path d="M440 318.95v2.1L424.73 326v-12zm-13.27 4.3l10.03-3.25-10.03-3.26z"/><path d="M359.5 260h40.25v180H440" stroke="#000" stroke-width="2" fill="none"/><path d="M440 440l-14.27 4.64v-9.28z"/><path d="M440 438.95v2.1L424.73 446v-12zm-13.27 4.3l10.03-3.25-10.03-3.26z"/><path d="M539.6 440h40.2V260H620" stroke="#000" stroke-width="2" fill="none"/><path d="M620 260l-14.27 4.64v-9.28z"/><path d="M620 258.95v2.1L604.73 266v-12zm-13.27 4.3l10.03-3.25-10.03-3.26z"/><path d="M539.6 320h40.2v-60H620" stroke="#000" stroke-width="2" fill="none"/><path d="M620 260l-14.27 4.64v-9.28z"/><path d="M620 258.95v2.1L604.73 266v-12zm-13.27 4.3l10.03-3.25-10.03-3.26z"/><path d="M800 260h99.6v95.9H800V260z" fill="#d9a741"/><path d="M800 355.9h99.6v4.5H800v-4.5z" fill="#8c6c2a"/><path d="M892.5 316.7v-16.8h-6.7c-.9-3.4-2.9-8-5.7-12l4.7-3.7-10.2-9.4-4.9 4.6c-4.1-2.6-8.2-4.3-14.2-5.2v-7.4h-15.1v7.5c-3.5 1-8.4 2.7-12.3 5.1l-4.2-4.3-10 9.8 4.4 2.7c-2.9 4.1-4.9 8.9-5.8 12.3H807v16.8h5.7c.9 4.4 2.9 8.8 5.5 12.6l-4.7 4.4 10.2 9.8 4.1-4.5c3.9 2.5 9.1 4.3 12.6 5.3v5.8h15.1v-5.6c6-1 10.3-2.9 14.5-5.7l5 4.7 10.3-9.8-5-4.7c2.5-3.7 4.4-10.2 5.4-12.3h6.9-.1zM848.9 334c-13.8-.1-25.4-11.2-25.7-24.3-.3-14 12.3-25.3 26-25.3 14.6-.1 26.6 11.3 26.4 25.3-.2 13.5-12 24.4-26.7 24.3" fill="#fff"/><path d="M864.3 308.5c0 7.7-6.5 13.9-14.5 13.9s-14.6-6.2-14.6-13.9 6.6-13.9 14.6-13.9 14.5 6.2 14.5 13.9" fill="#fff"/><use xlink:href="#f" transform="matrix(1,0,0,1,800,360) translate(30.099999999999998 14.4)"/><path d="M800 380h99.6v95.9H800V380z" fill="#d9a741"/><path d="M800 475.9h99.6v4.5H800v-4.5z" fill="#8c6c2a"/><path d="M892.5 436.7v-16.8h-6.7c-.9-3.4-2.9-8-5.7-12l4.7-3.7-10.2-9.4-4.9 4.6c-4.1-2.6-8.2-4.3-14.2-5.2v-7.4h-15.1v7.5c-3.5 1-8.4 2.7-12.3 5.1l-4.2-4.3-10 9.8 4.4 2.7c-2.9 4.1-4.9 8.9-5.8 12.3H807v16.8h5.7c.9 4.4 2.9 8.8 5.5 12.6l-4.7 4.4 10.2 9.8 4.1-4.5c3.9 2.5 9.1 4.3 12.6 5.3v5.8h15.1v-5.6c6-1 10.3-2.9 14.5-5.7l5 4.7 10.3-9.8-5-4.7c2.5-3.7 4.4-10.2 5.4-12.3h6.9-.1zM848.9 454c-13.8-.1-25.4-11.2-25.7-24.3-.3-14 12.3-25.3 26-25.3 14.6-.1 26.6 11.3 26.4 25.3-.2 13.5-12 24.4-26.7 24.3" fill="#fff"/><path d="M864.3 428.5c0 7.7-6.5 13.9-14.5 13.9s-14.6-6.2-14.6-13.9 6.6-13.9 14.6-13.9 14.5 6.2 14.5 13.9" fill="#fff"/><use xlink:href="#f" transform="matrix(1,0,0,1,800,480) translate(30.099999999999998 14.4)"/><path d="M720 260h40v60h40" stroke="#000" stroke-width="2" fill="none"/><path d="M720 261h-.5v-2h.5zM800 320l-14.27 4.64v-9.28z"/><path d="M800 318.95v2.1L784.73 326v-12zm-13.27 4.3l10.03-3.25-10.03-3.26z"/><path d="M719.5 260h40.25v180H800" stroke="#000" stroke-width="2" fill="none"/><path d="M800 440l-14.27 4.64v-9.28z"/><path d="M800 438.95v2.1L784.73 446v-12zm-13.27 4.3l10.03-3.25-10.03-3.26z"/><path d="M899.6 440h40.2V260H980" stroke="#000" stroke-width="2" fill="none"/><path d="M980 260l-14.27 4.64v-9.28z"/><path d="M980 258.95v2.1L964.73 266v-12zm-13.27 4.3l10.03-3.25-10.03-3.26z"/><path d="M899.6 320h40.2v-60H980" stroke="#000" stroke-width="2" fill="none"/><path d="M980 260l-14.27 4.64v-9.28z"/><path d="M980 258.95v2.1L964.73 266v-12zm-13.27 4.3l10.03-3.25-10.03-3.26z"/><path d="M1160 260h99.6v95.9H1160V260z" fill="#d9a741"/><path d="M1160 355.9h99.6v4.5H1160v-4.5z" fill="#8c6c2a"/><path d="M1252.5 316.7v-16.8h-6.7c-.9-3.4-2.9-8-5.7-12l4.7-3.7-10.2-9.4-4.9 4.6c-4.1-2.6-8.2-4.3-14.2-5.2v-7.4h-15.1v7.5c-3.5 1-8.4 2.7-12.3 5.1l-4.2-4.3-10 9.8 4.4 2.7c-2.9 4.1-4.9 8.9-5.8 12.3h-5.5v16.8h5.7c.9 4.4 2.9 8.8 5.5 12.6l-4.7 4.4 10.2 9.8 4.1-4.5c3.9 2.5 9.1 4.3 12.6 5.3v5.8h15.1v-5.6c6-1 10.3-2.9 14.5-5.7l5 4.7 10.3-9.8-5-4.7c2.5-3.7 4.4-10.2 5.4-12.3h6.9-.1zm-43.6 17.3c-13.8-.1-25.4-11.2-25.7-24.3-.3-14 12.3-25.3 26-25.3 14.6-.1 26.6 11.3 26.4 25.3-.2 13.5-12 24.4-26.7 24.3" fill="#fff"/><path d="M1224.3 308.5c0 7.7-6.5 13.9-14.5 13.9s-14.6-6.2-14.6-13.9 6.6-13.9 14.6-13.9 14.5 6.2 14.5 13.9" fill="#fff"/><use xlink:href="#g" transform="matrix(1,0,0,1,1160,360) translate(16.049999999999997 14.4)"/><path d="M1160 380h99.6v95.9H1160V380z" fill="#d9a741"/><path d="M1160 475.9h99.6v4.5H1160v-4.5z" fill="#8c6c2a"/><path d="M1252.5 436.7v-16.8h-6.7c-.9-3.4-2.9-8-5.7-12l4.7-3.7-10.2-9.4-4.9 4.6c-4.1-2.6-8.2-4.3-14.2-5.2v-7.4h-15.1v7.5c-3.5 1-8.4 2.7-12.3 5.1l-4.2-4.3-10 9.8 4.4 2.7c-2.9 4.1-4.9 8.9-5.8 12.3h-5.5v16.8h5.7c.9 4.4 2.9 8.8 5.5 12.6l-4.7 4.4 10.2 9.8 4.1-4.5c3.9 2.5 9.1 4.3 12.6 5.3v5.8h15.1v-5.6c6-1 10.3-2.9 14.5-5.7l5 4.7 10.3-9.8-5-4.7c2.5-3.7 4.4-10.2 5.4-12.3h6.9-.1zm-43.6 17.3c-13.8-.1-25.4-11.2-25.7-24.3-.3-14 12.3-25.3 26-25.3 14.6-.1 26.6 11.3 26.4 25.3-.2 13.5-12 24.4-26.7 24.3" fill="#fff"/><path d="M1224.3 428.5c0 7.7-6.5 13.9-14.5 13.9s-14.6-6.2-14.6-13.9 6.6-13.9 14.6-13.9 14.5 6.2 14.5 13.9" fill="#fff"/><use xlink:href="#g" transform="matrix(1,0,0,1,1160,480) translate(16.049999999999997 14.4)"/><path d="M1079.5 260h40.25v60H1160" stroke="#000" stroke-width="2" fill="none"/><path d="M1160 320l-14.27 4.64v-9.28z"/><path d="M1160 318.95v2.1l-15.27 4.96v-12zm-13.27 4.3l10.03-3.25-10.03-3.26z"/><path d="M1079.5 260h40.25v180H1160" stroke="#000" stroke-width="2" fill="none"/><path d="M1160 440l-14.27 4.64v-9.28z"/><path d="M1160 438.95v2.1l-15.27 4.96v-12zm-13.27 4.3l10.03-3.25-10.03-3.26z"/><path d="M1259.6 440h40.2V260h40.2" stroke="#000" stroke-width="2" fill="none"/><path d="M1340 260l-14.27 4.64v-9.28z"/><path d="M1340 258.95v2.1l-15.27 4.96v-12zm-13.27 4.3l10.03-3.25-10.03-3.26z"/><path d="M1259.6 320h40.2v-60h40.2" stroke="#000" stroke-width="2" fill="none"/><path d="M1340 260l-14.27 4.64v-9.28z"/><path d="M1340 258.95v2.1l-15.27 4.96v-12zm-13.27 4.3l10.03-3.25-10.03-3.26z"/><path d="M87.7 235.8h84.6v4.2H87.7z" fill="#8c6c2a"/><path d="M87.7 140v95.8h84.6V140z" fill="#d9a741"/><path d="M97.3 147.1h65.4v10.8H97.3zM97.3 161.4h65.4v9H97.3zM97.3 173.9h65.4v9H97.3zM97.3 188.2h65.4v8.9H97.3zM97.3 202.5h65.4v7.1H97.3zM97.3 215h65.4v8.9H97.3zM80 164.9l13 13.4-13 13.3zM180 191.6l-13-13.3 13-13.4z" fill="#fff"/><path d="M82 169.5l8.4 8.7-8.4 8.7v-17.4zM178.1 187.1v-17.5l-8.4 8.7 8.4 8.8z" fill="#d9a741"/><use xlink:href="#i" transform="matrix(1,0,0,1,80,240) translate(21.525 14.4)"/><path d="M87.7 355.8h84.6v4.2H87.7z" fill="#8c6c2a"/><path d="M87.7 260v95.8h84.6V260z" fill="#d9a741"/><path d="M97.3 267.1h65.4v10.8H97.3zM97.3 281.4h65.4v9H97.3zM97.3 293.9h65.4v9H97.3zM97.3 308.2h65.4v8.9H97.3zM97.3 322.5h65.4v7.1H97.3zM97.3 335h65.4v8.9H97.3zM80 284.9l13 13.4-13 13.3zM180 311.6l-13-13.3 13-13.4z" fill="#fff"/><path d="M82 289.5l8.4 8.7-8.4 8.7v-17.4zM178.1 307.1v-17.5l-8.4 8.7 8.4 8.8z" fill="#d9a741"/><use xlink:href="#j" transform="matrix(1,0,0,1,80,360) translate(21.525 14.4)"/><path d="M87.7 115.8h84.6v4.2H87.7z" fill="#8c6c2a"/><path d="M87.7 20v95.8h84.6V20z" fill="#d9a741"/><path d="M97.3 27.1h65.4v10.8H97.3zM97.3 41.4h65.4v9H97.3zM97.3 53.9h65.4v9H97.3zM97.3 68.2h65.4v8.9H97.3zM97.3 82.5h65.4v7.1H97.3zM97.3 95h65.4v8.9H97.3zM80 44.9l13 13.4-13 13.3zM180 71.6l-13-13.3 13-13.4z" fill="#fff"/><path d="M82 49.5l8.4 8.7-8.4 8.7V49.5zM178.1 67.1V49.6l-8.4 8.7 8.4 8.8z" fill="#d9a741"/><use xlink:href="#k" transform="matrix(1,0,0,1,80,120) translate(21.525 14.4)"/><path d="M87.7 475.8h84.6v4.2H87.7z" fill="#8c6c2a"/><path d="M87.7 380v95.8h84.6V380z" fill="#d9a741"/><path d="M97.3 387.1h65.4v10.8H97.3zM97.3 401.4h65.4v9H97.3zM97.3 413.9h65.4v9H97.3zM97.3 428.2h65.4v8.9H97.3zM97.3 442.5h65.4v7.1H97.3zM97.3 455h65.4v8.9H97.3zM80 404.9l13 13.4-13 13.3zM180 431.6l-13-13.3 13-13.4z" fill="#fff"/><path d="M82 409.5l8.4 8.7-8.4 8.7v-17.4zM178.1 427.1v-17.5l-8.4 8.7 8.4 8.8z" fill="#d9a741"/><use xlink:href="#l" transform="matrix(1,0,0,1,80,480) translate(21.525 14.4)"/><path d="M172.3 80h43.85v180H260" stroke="#000" stroke-width="2" fill="none"/><path d="M260 260l-14.27 4.64v-9.28z"/><path d="M260 258.95v2.1L244.73 266v-12zm-13.27 4.3l10.03-3.25-10.03-3.26z"/><path d="M172.3 200h43.85v60H260" stroke="#000" stroke-width="2" fill="none"/><path d="M260 260l-14.27 4.64v-9.28z"/><path d="M260 258.95v2.1L244.73 266v-12zm-13.27 4.3l10.03-3.25-10.03-3.26z"/><path d="M172.3 320h43.85v-60H260" stroke="#000" stroke-width="2" fill="none"/><path d="M260 260l-14.27 4.64v-9.28z"/><path d="M260 258.95v2.1L244.73 266v-12zm-13.27 4.3l10.03-3.25-10.03-3.26z"/><path d="M172.3 440h43.85V260H260" stroke="#000" stroke-width="2" fill="none"/><path d="M260 260l-14.27 4.64v-9.28z"/><path d="M260 258.95v2.1L244.73 266v-12zm-13.27 4.3l10.03-3.25-10.03-3.26z"/><defs><path d="M240 0l2-218c-23 76-54 145-80 218h-23L58-218 59 0H30v-248h44l77 211c21-75 51-140 76-211h43V0h-30" id="m"/><path d="M141-36C126-15 110 5 73 4 37 3 15-17 15-53c-1-64 63-63 125-63 3-35-9-54-41-54-24 1-41 7-42 31l-33-3c5-37 33-52 76-52 45 0 72 20 72 64v82c-1 20 7 32 28 27v20c-31 9-61-2-59-35zM48-53c0 20 12 33 32 33 41-3 63-29 60-74-43 2-92-5-92 41" id="n"/><path d="M115-194c55 1 70 41 70 98S169 2 115 4C84 4 66-9 55-30l1 105H24l-1-265h31l2 30c10-21 28-34 59-34zm-8 174c40 0 45-34 45-75s-6-73-45-74c-42 0-51 32-51 76 0 43 10 73 51 73" id="o"/><path d="M100-194c63 0 86 42 84 106H49c0 40 14 67 53 68 26 1 43-12 49-29l28 8c-11 28-37 45-77 45C44 4 14-33 15-96c1-61 26-98 85-98zm52 81c6-60-76-77-97-28-3 7-6 17-6 28h103" id="p"/><path d="M114-163C36-179 61-72 57 0H25l-1-190h30c1 12-1 29 2 39 6-27 23-49 58-41v29" id="q"/><g id="a"><use transform="matrix(0.05,0,0,0.05,0,0)" xlink:href="#m"/><use transform="matrix(0.05,0,0,0.05,14.950000000000001,0)" xlink:href="#n"/><use transform="matrix(0.05,0,0,0.05,24.950000000000003,0)" xlink:href="#o"/><use transform="matrix(0.05,0,0,0.05,34.95,0)" xlink:href="#o"/><use transform="matrix(0.05,0,0,0.05,44.95,0)" xlink:href="#p"/><use transform="matrix(0.05,0,0,0.05,54.95,0)" xlink:href="#q"/></g><path d="M30-248c118-7 216 8 213 122C240-48 200 0 122 0H30v-248zM63-27c89 8 146-16 146-99s-60-101-146-95v194" id="r"/><path d="M59-47c-2 24 18 29 38 22v24C64 9 27 4 27-40v-127H5v-23h24l9-43h21v43h35v23H59v120" id="s"/><path d="M0 4l72-265h28L28 4H0" id="t"/><g id="b"><use transform="matrix(0.05,0,0,0.05,0,0)" xlink:href="#r"/><use transform="matrix(0.05,0,0,0.05,12.950000000000001,0)" xlink:href="#n"/><use transform="matrix(0.05,0,0,0.05,22.950000000000003,0)" xlink:href="#s"/><use transform="matrix(0.05,0,0,0.05,27.950000000000003,0)" xlink:href="#n"/><use transform="matrix(0.05,0,0,0.05,37.95,0)" xlink:href="#t"/><use transform="matrix(0.05,0,0,0.05,42.95,0)" xlink:href="#m"/><use transform="matrix(0.05,0,0,0.05,57.900000000000006,0)" xlink:href="#n"/><use transform="matrix(0.05,0,0,0.05,67.9,0)" xlink:href="#o"/><use transform="matrix(0.05,0,0,0.05,77.9,0)" xlink:href="#o"/><use transform="matrix(0.05,0,0,0.05,87.9,0)" xlink:href="#p"/><use transform="matrix(0.05,0,0,0.05,97.9,0)" xlink:href="#q"/></g><path d="M63-220v92h138v28H63V0H30v-248h175v28H63" id="u"/><path d="M24-231v-30h32v30H24zM24 0v-190h32V0H24" id="v"/><path d="M24 0v-261h32V0H24" id="w"/><path d="M233-177c-1 41-23 64-60 70L243 0h-38l-65-103H63V0H30v-248c88 3 205-21 203 71zM63-129c60-2 137 13 137-47 0-61-80-42-137-45v92" id="x"/><path d="M85-194c31 0 48 13 60 33l-1-100h32l1 261h-30c-2-10 0-23-3-31C134-8 116 4 85 4 32 4 16-35 15-94c0-66 23-100 70-100zm9 24c-40 0-46 34-46 75 0 40 6 74 45 74 42 0 51-32 51-76 0-42-9-74-50-73" id="y"/><path d="M84 4C-5 8 30-112 23-190h32v120c0 31 7 50 39 49 72-2 45-101 50-169h31l1 190h-30c-1-10 1-25-2-33-11 22-28 36-60 37" id="z"/><path d="M96-169c-40 0-48 33-48 73s9 75 48 75c24 0 41-14 43-38l32 2c-6 37-31 61-74 61-59 0-76-41-82-99-10-93 101-131 147-64 4 7 5 14 7 22l-32 3c-4-21-16-35-41-35" id="A"/><g id="c"><use transform="matrix(0.05,0,0,0.05,0,0)" xlink:href="#u"/><use transform="matrix(0.05,0,0,0.05,10.950000000000001,0)" xlink:href="#v"/><use transform="matrix(0.05,0,0,0.05,14.9,0)" xlink:href="#w"/><use transform="matrix(0.05,0,0,0.05,18.85,0)" xlink:href="#s"/><use transform="matrix(0.05,0,0,0.05,23.85,0)" xlink:href="#p"/><use transform="matrix(0.05,0,0,0.05,33.85,0)" xlink:href="#q"/><use transform="matrix(0.05,0,0,0.05,39.800000000000004,0)" xlink:href="#t"/><use transform="matrix(0.05,0,0,0.05,44.800000000000004,0)" xlink:href="#x"/><use transform="matrix(0.05,0,0,0.05,57.75,0)" xlink:href="#p"/><use transform="matrix(0.05,0,0,0.05,67.75,0)" xlink:href="#y"/><use transform="matrix(0.05,0,0,0.05,77.75,0)" xlink:href="#z"/><use transform="matrix(0.05,0,0,0.05,87.75,0)" xlink:href="#A"/><use transform="matrix(0.05,0,0,0.05,96.75,0)" xlink:href="#p"/><use transform="matrix(0.05,0,0,0.05,106.75,0)" xlink:href="#q"/></g><g id="d"><use transform="matrix(0.05,0,0,0.05,0,0)" xlink:href="#m"/><use transform="matrix(0.05,0,0,0.05,14.950000000000001,0)" xlink:href="#n"/><use transform="matrix(0.05,0,0,0.05,24.950000000000003,0)" xlink:href="#o"/><use transform="matrix(0.05,0,0,0.05,34.95,0)" xlink:href="#o"/><use transform="matrix(0.05,0,0,0.05,44.95,0)" xlink:href="#p"/><use transform="matrix(0.05,0,0,0.05,54.95,0)" xlink:href="#q"/><use transform="matrix(0.05,0,0,0.05,60.900000000000006,0)" xlink:href="#t"/><use transform="matrix(0.05,0,0,0.05,65.9,0)" xlink:href="#u"/><use transform="matrix(0.05,0,0,0.05,76.85000000000001,0)" xlink:href="#v"/><use transform="matrix(0.05,0,0,0.05,80.80000000000001,0)" xlink:href="#w"/><use transform="matrix(0.05,0,0,0.05,84.75000000000001,0)" xlink:href="#s"/><use transform="matrix(0.05,0,0,0.05,89.75000000000001,0)" xlink:href="#p"/><use transform="matrix(0.05,0,0,0.05,99.75000000000001,0)" xlink:href="#q"/></g><path d="M30-248c87 1 191-15 191 75 0 78-77 80-158 76V0H30v-248zm33 125c57 0 124 11 124-50 0-59-68-47-124-48v98" id="B"/><path d="M117-194c89-4 53 116 60 194h-32v-121c0-31-8-49-39-48C34-167 62-67 57 0H25l-1-190h30c1 10-1 24 2 32 11-22 29-35 61-36" id="C"/><g id="e"><use transform="matrix(0.05,0,0,0.05,0,0)" xlink:href="#x"/><use transform="matrix(0.05,0,0,0.05,12.950000000000001,0)" xlink:href="#p"/><use transform="matrix(0.05,0,0,0.05,22.950000000000003,0)" xlink:href="#y"/><use transform="matrix(0.05,0,0,0.05,32.95,0)" xlink:href="#z"/><use transform="matrix(0.05,0,0,0.05,42.95,0)" xlink:href="#A"/><use transform="matrix(0.05,0,0,0.05,51.95,0)" xlink:href="#p"/><use transform="matrix(0.05,0,0,0.05,61.95,0)" xlink:href="#q"/><use transform="matrix(0.05,0,0,0.05,67.9,0)" xlink:href="#t"/><use transform="matrix(0.05,0,0,0.05,72.9,0)" xlink:href="#B"/><use transform="matrix(0.05,0,0,0.05,84.9,0)" xlink:href="#q"/><use transform="matrix(0.05,0,0,0.05,90.85000000000001,0)" xlink:href="#v"/><use transform="matrix(0.05,0,0,0.05,94.80000000000001,0)" xlink:href="#C"/><use transform="matrix(0.05,0,0,0.05,104.80000000000001,0)" xlink:href="#s"/><use transform="matrix(0.05,0,0,0.05,109.80000000000001,0)" xlink:href="#p"/><use transform="matrix(0.05,0,0,0.05,119.80000000000001,0)" xlink:href="#q"/></g><g id="f"><use transform="matrix(0.05,0,0,0.05,0,0)" xlink:href="#u"/><use transform="matrix(0.05,0,0,0.05,10.950000000000001,0)" xlink:href="#v"/><use transform="matrix(0.05,0,0,0.05,14.9,0)" xlink:href="#w"/><use transform="matrix(0.05,0,0,0.05,18.85,0)" xlink:href="#s"/><use transform="matrix(0.05,0,0,0.05,23.85,0)" xlink:href="#p"/><use transform="matrix(0.05,0,0,0.05,33.85,0)" xlink:href="#q"/></g><g id="g"><use transform="matrix(0.05,0,0,0.05,0,0)" xlink:href="#x"/><use transform="matrix(0.05,0,0,0.05,12.950000000000001,0)" xlink:href="#p"/><use transform="matrix(0.05,0,0,0.05,22.950000000000003,0)" xlink:href="#y"/><use transform="matrix(0.05,0,0,0.05,32.95,0)" xlink:href="#z"/><use transform="matrix(0.05,0,0,0.05,42.95,0)" xlink:href="#A"/><use transform="matrix(0.05,0,0,0.05,51.95,0)" xlink:href="#p"/><use transform="matrix(0.05,0,0,0.05,61.95,0)" xlink:href="#q"/></g><g id="h"><use transform="matrix(0.05,0,0,0.05,0,0)" xlink:href="#B"/><use transform="matrix(0.05,0,0,0.05,12,0)" xlink:href="#q"/><use transform="matrix(0.05,0,0,0.05,17.95,0)" xlink:href="#v"/><use transform="matrix(0.05,0,0,0.05,21.9,0)" xlink:href="#C"/><use transform="matrix(0.05,0,0,0.05,31.899999999999995,0)" xlink:href="#s"/><use transform="matrix(0.05,0,0,0.05,36.9,0)" xlink:href="#p"/><use transform="matrix(0.05,0,0,0.05,46.9,0)" xlink:href="#q"/></g><path d="M135-143c-3-34-86-38-87 0 15 53 115 12 119 90S17 21 10-45l28-5c4 36 97 45 98 0-10-56-113-15-118-90-4-57 82-63 122-42 12 7 21 19 24 35" id="D"/><path d="M101-251c82-7 93 87 43 132L82-64C71-53 59-42 53-27h129V0H18c2-99 128-94 128-182 0-28-16-43-45-43s-46 15-49 41l-32-3c6-41 34-60 81-64" id="E"/><g id="i"><use transform="matrix(0.05,0,0,0.05,0,0)" xlink:href="#r"/><use transform="matrix(0.05,0,0,0.05,12.950000000000001,0)" xlink:href="#n"/><use transform="matrix(0.05,0,0,0.05,22.950000000000003,0)" xlink:href="#s"/><use transform="matrix(0.05,0,0,0.05,27.950000000000003,0)" xlink:href="#n"/><use transform="matrix(0.05,0,0,0.05,37.95,0)" xlink:href="#D"/><use transform="matrix(0.05,0,0,0.05,46.95,0)" xlink:href="#E"/></g><path d="M126-127c33 6 58 20 58 59 0 88-139 92-164 29-3-8-5-16-6-25l32-3c6 27 21 44 54 44 32 0 52-15 52-46 0-38-36-46-79-43v-28c39 1 72-4 72-42 0-27-17-43-46-43-28 0-47 15-49 41l-32-3c6-42 35-63 81-64 48-1 79 21 79 65 0 36-21 52-52 59" id="F"/><g id="j"><use transform="matrix(0.05,0,0,0.05,0,0)" xlink:href="#r"/><use transform="matrix(0.05,0,0,0.05,12.950000000000001,0)" xlink:href="#n"/><use transform="matrix(0.05,0,0,0.05,22.950000000000003,0)" xlink:href="#s"/><use transform="matrix(0.05,0,0,0.05,27.950000000000003,0)" xlink:href="#n"/><use transform="matrix(0.05,0,0,0.05,37.95,0)" xlink:href="#D"/><use transform="matrix(0.05,0,0,0.05,46.95,0)" xlink:href="#F"/></g><path d="M27 0v-27h64v-190l-56 39v-29l58-41h29v221h61V0H27" id="G"/><g id="k"><use transform="matrix(0.05,0,0,0.05,0,0)" xlink:href="#r"/><use transform="matrix(0.05,0,0,0.05,12.950000000000001,0)" xlink:href="#n"/><use transform="matrix(0.05,0,0,0.05,22.950000000000003,0)" xlink:href="#s"/><use transform="matrix(0.05,0,0,0.05,27.950000000000003,0)" xlink:href="#n"/><use transform="matrix(0.05,0,0,0.05,37.95,0)" xlink:href="#D"/><use transform="matrix(0.05,0,0,0.05,46.95,0)" xlink:href="#G"/></g><path d="M155-56V0h-30v-56H8v-25l114-167h33v167h35v25h-35zm-30-156c-27 46-58 90-88 131h88v-131" id="H"/><g id="l"><use transform="matrix(0.05,0,0,0.05,0,0)" xlink:href="#r"/><use transform="matrix(0.05,0,0,0.05,12.950000000000001,0)" xlink:href="#n"/><use transform="matrix(0.05,0,0,0.05,22.950000000000003,0)" xlink:href="#s"/><use transform="matrix(0.05,0,0,0.05,27.950000000000003,0)" xlink:href="#n"/><use transform="matrix(0.05,0,0,0.05,37.95,0)" xlink:href="#D"/><use transform="matrix(0.05,0,0,0.05,46.95,0)" xlink:href="#H"/></g></defs></g></svg>